<svg width="25" height="25" viewBox="0 0 25 25" fill="none" xmlns="http://www.w3.org/2000/svg">
<mask id="mask0_104_347" style="mask-type:alpha" maskUnits="userSpaceOnUse" x="0" y="0" width="25" height="25">
<rect y="0.447266" width="24" height="24" transform="rotate(-1.06777 0 0.447266)" fill="#C4C4C4"/>
</mask>
<g mask="url(#mask0_104_347)">
<path d="M20.1565 22.0754L4.65924 22.3643C3.41945 22.3874 2.3908 21.3964 2.3677 20.1566L2.07885 4.65928C2.05575 3.41949 3.04675 2.39085 4.28654 2.36774L19.7838 2.0789C21.0236 2.05579 22.0523 3.04679 22.0754 4.28658L22.3642 19.7839C22.3873 21.0237 21.3963 22.0523 20.1565 22.0754ZM4.31449 3.86748C3.90056 3.87519 3.5709 4.2184 3.57859 4.63132L3.86744 20.1286C3.87513 20.5416 4.21735 20.8722 4.63128 20.8645L20.1286 20.5757C20.5425 20.568 20.8722 20.2248 20.8645 19.8118L20.5756 4.31453C20.5679 3.9016 20.2257 3.57092 19.8118 3.57864L4.31449 3.86748Z" fill="black"/>
<path d="M16.9055 8.63364L6.90722 8.81999C6.49329 8.82771 6.15107 8.49703 6.14337 8.0841C6.13567 7.67117 6.46534 7.32797 6.87926 7.32025L16.8775 7.1339C17.2915 7.12619 17.6336 7.45487 17.6414 7.8698C17.6491 8.28472 17.3194 8.62593 16.9055 8.63364ZM16.9821 12.7429L6.98381 12.9293C6.56988 12.937 6.22768 12.6073 6.21996 12.1934C6.21225 11.7795 6.54193 11.4373 6.95585 11.4295L16.9541 11.2432C17.368 11.2355 17.7102 11.5652 17.718 11.9791C17.7257 12.393 17.396 12.7352 16.9821 12.7429ZM12.0595 16.9454L7.0604 17.0386C6.64647 17.0463 6.30428 16.7176 6.29655 16.3027C6.28882 15.8877 6.61852 15.5465 7.03244 15.5388L12.0316 15.4457C12.4455 15.4379 12.7877 15.7686 12.7954 16.1815C12.8031 16.5945 12.4735 16.9377 12.0595 16.9454Z" fill="black"/>
</g>
</svg>
